<?xml version="1.0" standalone="no"?>
<!DOCTYPE svg PUBLIC "-//W3C//DTD SVG 20010904//EN"
 "http://www.w3.org/TR/2001/REC-SVG-20010904/DTD/svg10.dtd">
<svg version="1.0" xmlns="http://www.w3.org/2000/svg"
 width="500.000000pt" height="500.000000pt" viewBox="0 0 500.000000 500.000000"
 preserveAspectRatio="xMidYMid meet">
<metadata>
Created by potrace 1.16, written by Peter Selinger 2001-2019
</metadata>
<g transform="translate(0.000000,500.000000) scale(0.100000,-0.100000)"
fill="#000000" stroke="none">
<path d="M2017 3192 c-30 -33 -40 -77 -42 -184 -1 -92 -4 -111 -21 -130 -36
-40 -56 -109 -61 -208 -4 -78 -1 -111 17 -185 25 -97 40 -124 110 -198 50 -54
129 -98 208 -116 28 -7 52 -17 52 -21 0 -29 -15 -40 -55 -40 -62 0 -86 12
-122 61 -18 24 -50 57 -70 74 -32 25 -47 30 -95 30 -46 0 -60 -4 -72 -20 -29
-38 -20 -70 33 -114 28 -23 58 -61 71 -88 51 -109 131 -163 241 -163 l49 0 0
-58 c0 -56 -2 -61 -40 -95 -72 -64 -45 -117 60 -117 44 0 58 -4 68 -20 10 -16
23 -20 64 -20 44 0 57 5 94 36 24 19 44 32 44 27 0 -4 20 -20 44 -35 54 -35
124 -39 144 -8 10 16 23 20 72 20 47 0 64 4 80 20 29 29 25 51 -20 95 l-40 39
0 137 c0 75 -5 160 -10 189 -12 61 -9 64 53 74 64 11 145 56 193 110 64 70 91
134 105 246 19 162 -4 284 -72 371 -23 30 -27 43 -22 77 3 22 2 70 -2 107 -9
85 -39 125 -95 125 -40 0 -144 -36 -201 -69 -31 -18 -42 -19 -134 -10 -67 6
-140 6 -222 -2 -119 -10 -122 -10 -160 13 -98 61 -215 85 -246 50z m137 -54
c34 -12 68 -27 76 -33 42 -35 75 -43 125 -34 28 6 133 9 235 7 173 -3 187 -2
215 18 43 29 133 64 166 64 42 0 53 -29 54 -147 1 -90 4 -105 22 -125 118
-125 101 -466 -28 -583 -54 -48 -102 -70 -199 -90 -47 -9 -91 -19 -98 -21 -9
-3 -3 -17 20 -45 l33 -41 5 -184 5 -185 33 -25 c47 -37 41 -47 -24 -42 -47 4
-59 10 -79 34 -21 27 -23 40 -27 174 -2 94 -7 152 -16 165 -10 16 -12 -14 -10
-166 3 -162 5 -190 21 -206 24 -28 21 -43 -9 -43 -34 0 -90 44 -103 82 -6 17
-11 103 -11 194 0 139 -2 164 -15 164 -13 0 -15 -23 -15 -147 -1 -82 -5 -168
-9 -191 -11 -57 -58 -102 -107 -102 -40 0 -42 5 -11 38 21 22 22 33 25 205 3
150 1 180 -10 169 -9 -9 -15 -58 -18 -162 -5 -140 -6 -150 -29 -174 -26 -27
-69 -40 -117 -34 l-29 3 43 39 42 39 0 94 0 93 -72 0 c-119 1 -175 35 -224
140 -21 45 -52 82 -95 111 -28 19 -18 39 19 39 32 0 66 -22 102 -64 88 -104
82 -100 156 -104 81 -4 124 9 124 37 0 11 13 36 30 54 l30 35 -94 21 c-201 47
-291 131 -331 315 -30 134 -8 282 51 341 16 16 19 35 19 124 0 119 15 171 48
171 11 0 47 -10 81 -22z"/>
</g>
</svg>
